<?xml version="1.0" encoding="UTF-8"?>
<svg width="100px" height="95px" viewBox="0 0 100 95" version="1.1" xmlns="http://www.w3.org/2000/svg" xmlns:xlink="http://www.w3.org/1999/xlink">
    <title>9F10C326-2E2F-46CD-B062-07FF37B35C3A</title>
    <g id="Page-1" stroke="none" stroke-width="1" fill="none" fill-rule="evenodd">
        <g id="Email-template" transform="translate(-225.000000, -128.000000)" fill-rule="nonzero">
            <g id="new-email" transform="translate(225.000000, 128.000000)">
                <path d="M21.8577973,11.987462 C16.7193921,31.0544785 3.34245802,41.4775143 0.865775181,50.6669196 C-1.61090766,59.8563249 -1.54543213,80.5796046 40.5923372,92.0078209 C82.7301066,103.436037 95.9106141,79.1546471 98.6321185,69.0457302 C111.388458,21.7222919 30.958895,-21.783174 21.8577973,11.987462 Z" id="Path" fill="#EFEFEF"></path>
                <g id="Group" transform="translate(14.812455, 4.394869)" fill="#B8ADFF">
                    <path d="M72.1963347,21.7736333 C69.8420626,21.7736333 67.9261919,19.8517968 67.9261919,17.4901939 C67.9261919,15.128591 69.8420626,13.2067545 72.1963347,13.2067545 C74.5506068,13.2067545 76.4664775,15.128591 76.4664775,17.4901939 C76.4664775,19.8517968 74.5506068,21.7736333 72.1963347,21.7736333 Z M72.1963347,16.0623808 C71.4106284,16.0623808 70.7729538,16.7020411 70.7729538,17.4901939 C70.7729538,18.2783468 71.4106284,18.9180071 72.1963347,18.9180071 C72.982041,18.9180071 73.6197157,18.2783468 73.6197157,17.4901939 C73.6197157,16.7020411 72.982041,16.0623808 72.1963347,16.0623808 Z" id="Shape"></path>
                    <polygon id="Path" transform="translate(3.540002, 3.028392) rotate(-45.000000) translate(-3.540002, -3.028392) " points="2.11905172 0.179843894 4.96981523 0.175412378 4.9609522 5.87693939 2.11018869 5.8813709"></polygon>
                    <polygon id="Path" transform="translate(3.034767, 14.641655) rotate(-45.000000) translate(-3.034767, -14.641655) " points="0.186219455 13.2207051 5.88774646 13.2118421 5.88331495 16.0626056 0.18178794 16.0714686"></polygon>
                    <polygon id="Path" transform="translate(14.609701, 3.035458) rotate(-45.000000) translate(-14.609701, -3.035458) " points="11.761148 1.61451261 17.462675 1.60564958 17.4582435 4.45641308 11.7567165 4.46527611"></polygon>
                </g>
                <path d="M73.4866708,46.7861235 L73.4866708,21.0854873 C73.4866708,17.9300203 70.9388189,15.3742348 67.793147,15.3742348 L32.2086235,15.3742348 C29.0629516,15.3742348 26.5150997,17.9300203 26.5150997,21.0854873 L26.5150997,46.7861235 L26.5150997,70.5020996 L73.4866708,70.5020996 L73.4866708,46.7861235 Z" id="Path" fill="#B4A8FF"></path>
                <path d="M32.920314,21.0854873 C32.920314,17.9300203 35.4681659,15.3742348 38.6138377,15.3742348 L32.2086235,15.3742348 C29.0629516,15.3742348 26.5150997,17.9300203 26.5150997,21.0854873 L26.5150997,46.7861235 L26.5150997,70.5020996 L32.920314,70.5020996 L32.920314,46.7861235 L32.920314,21.0854873 Z" id="Path" fill="#7B68EE"></path>
                <path d="M76.3334327,79.6258254 L23.6683379,79.6258254 C20.522666,79.6258254 17.9748141,77.0700399 17.9748141,73.9145729 L17.9748141,58.2086285 C17.9748141,56.6323229 19.2501634,55.3530023 20.821576,55.3530023 L28.6672517,55.3530023 C29.9255205,55.3530023 31.0329108,56.1811339 31.3944496,57.3890638 L34.4461783,67.5979277 C34.8077171,68.8058576 35.9151075,69.6339892 37.1733762,69.6339892 L62.8255475,69.6339892 C64.0838163,69.6339892 65.1912067,68.8058576 65.5527454,67.5979277 L68.6044742,57.3890638 C68.9660129,56.1811339 70.0734033,55.3530023 71.3316721,55.3530023 L79.1773478,55.3530023 C80.7487604,55.3530023 82.0241121,56.6323229 82.0241121,58.2086285 L82.0241121,73.9145729 C82.0269564,77.0700399 79.4791046,79.6258254 76.3334327,79.6258254 Z" id="Path" fill="#F3F3F1"></path>
                <path d="M71.9608064,67.595072 L75.0125352,57.3862082 C75.3740739,56.1782783 76.4814643,55.3501467 77.739733,55.3501467 L71.3345188,55.3501467 C70.0762501,55.3501467 68.9688597,56.1782783 68.6073209,57.3862082 L65.5555922,67.595072 C65.1940534,68.8030019 64.0866631,69.6311336 62.8283943,69.6311336 L69.2336085,69.6311336 C70.4890305,69.6311336 71.5992677,68.8030019 71.9608064,67.595072 Z" id="Path" fill="#D5DBE1"></path>
                <path d="M24.3800283,73.9145729 L24.3800283,58.2086285 C24.3800283,56.6323229 25.6553777,55.3530023 27.2267902,55.3530023 L20.821576,55.3530023 C19.2501634,55.3530023 17.9748141,56.6323229 17.9748141,58.2086285 L17.9748141,73.9145729 C17.9748141,77.0700399 20.522666,79.6258254 23.6683379,79.6258254 L30.0735521,79.6258254 C26.9278802,79.6258254 24.3800283,77.0700399 24.3800283,73.9145729 Z" id="Path" fill="#D5DBE1"></path>
                <polygon id="Path" fill="#7B68EE" points="37.9021473 41.7887776 62.0996233 41.7887776 62.0996233 46.072217 37.9021473 46.072217"></polygon>
                <polygon id="Path" fill="#7B68EE" points="37.9021473 33.2218988 62.0996233 33.2218988 62.0996233 37.5053382 37.9021473 37.5053382"></polygon>
                <polygon id="Path" fill="#7B68EE" points="37.9021473 24.6550201 50.7125757 24.6550201 50.7125757 28.9384595 37.9021473 28.9384595"></polygon>
                <path d="M76.3334327,81.7675451 L23.6683379,81.7675451 C19.3498001,81.7675451 15.8397427,78.246558 15.8397427,73.9145729 L15.8397427,58.2086285 C15.8397427,55.4529492 18.0744508,53.2112826 20.821576,53.2112826 L28.6672517,53.2112826 C30.8848792,53.2112826 32.80075,54.6419514 33.4384246,56.7751042 L36.4930001,66.9811124 C36.5840965,67.2838088 36.8573857,67.4894139 37.1733762,67.4894139 L62.8283943,67.4894139 C63.1443849,67.4894139 63.417674,67.2838088 63.5087704,66.9811124 L66.5633459,56.7722485 C67.2010206,54.6419514 69.1168913,53.2112826 71.3345188,53.2112826 L79.1801946,53.2112826 C81.9273198,53.2112826 84.1620279,55.4529492 84.1620279,58.2086285 L84.1620279,73.9145729 C84.1620279,78.246558 80.6519705,81.7675451 76.3334327,81.7675451 L76.3334327,81.7675451 Z M20.821576,57.494722 C20.4287228,57.494722 20.1098855,57.8145521 20.1098855,58.2086285 L20.1098855,73.9145729 C20.1098855,75.8820994 21.7069189,77.4841058 23.6683379,77.4841058 L76.3334327,77.4841058 C78.2948516,77.4841058 79.891885,75.8820994 79.891885,73.9145729 L79.891885,58.2086285 C79.891885,57.8145521 79.5730477,57.494722 79.1801946,57.494722 L71.3345188,57.494722 C71.0185282,57.494722 70.7452391,57.7003271 70.6541427,58.0030235 L67.5995672,68.2118873 C66.9618926,70.3421845 65.0460218,71.7728532 62.8283943,71.7728532 L37.1733762,71.7728532 C34.9557487,71.7728532 33.039878,70.3421845 32.4022033,68.2090317 L29.3476278,58.0030235 C29.2565314,57.6974714 28.9832423,57.4918664 28.6672517,57.4918664 L20.821576,57.4918664 L20.821576,57.494722 Z" id="Shape" fill="#999999"></path>
                <path d="M28.6501712,46.7861235 L24.3800283,46.7861235 L24.3800283,21.0854873 C24.3800283,16.7535022 27.8900857,13.2325151 32.2086235,13.2325151 L67.793147,13.2325151 C72.1116848,13.2325151 75.6217422,16.7535022 75.6217422,21.0854873 L75.6217422,46.7861235 L71.3515994,46.7861235 L71.3515994,21.0854873 C71.3515994,19.1179608 69.754566,17.5159544 67.793147,17.5159544 L32.2086235,17.5159544 C30.2472046,17.5159544 28.6501712,19.1179608 28.6501712,21.0854873 L28.6501712,46.7861235 Z" id="Path" fill="#999999"></path>
                <polygon id="Path" fill="#999999" points="4.45269515 77.4841058 95.5490754 77.4841058 95.5490754 81.7675451 4.45269515 81.7675451"></polygon>
            </g>
        </g>
    </g>
</svg>